<svg width="52" height="52" fill="none" xmlns="http://www.w3.org/2000/svg"><circle cx="25.968" cy="25.968" r="25.218" stroke="#9F938B" stroke-width="1.5"/><path d="M29.543 14.396a1.875 1.875 0 0 0-1.875-1.875H18.72a1.872 1.872 0 0 0-.038 3.744v18.97a4.509 4.509 0 0 0 7.85 3.032 5.07 5.07 0 0 0 3.599 1.479 5.117 5.117 0 0 0 5.127-5.117 5.573 5.573 0 0 0-.91-2.91l-3.674-6.827a.593.593 0 0 0-.538-.32.608.608 0 0 0-.535.325l-1.893 3.59v-12.22a1.875 1.875 0 0 0 1.836-1.87Zm-6.349 24.136a3.302 3.302 0 0 1-3.298-3.298V16.27h6.596v14.522s-.67 1.3-.795 1.569V22.188a.607.607 0 0 0-.607-.608H21.3a.607.607 0 0 0-.608.608V34.98a2.5 2.5 0 0 0 4.609 1.346c.118.34.272.666.46.972a3.292 3.292 0 0 1-2.567 1.234Zm1.288-15.735V34.98a1.287 1.287 0 1 1-2.575 0V22.797h2.575Zm5.661 3.676 3.14 5.834a4.437 4.437 0 0 1 .759 2.321 3.89 3.89 0 0 1-3.006 3.797 3.944 3.944 0 0 1-1.742.02 3.883 3.883 0 0 1-2.945-2.852c-.3-1.26.243-2.334.818-3.471l2.976-5.65ZM27.67 15.054h-8.95a.659.659 0 1 1 0-1.316h8.95a.66.66 0 1 1 0 1.316Z" fill="#9F938B"/></svg>