<svg width="24" height="24" fill="none" xmlns="http://www.w3.org/2000/svg"><path d="M12 1.313c.852 0 1.67.345 2.273.96.603.616.941 1.45.941 2.32v.657H8.786v-.656c0-.87.338-1.705.941-2.32A3.181 3.181 0 0 1 12 1.312Zm4.5 3.937v-.656a4.643 4.643 0 0 0-1.318-3.249A4.454 4.454 0 0 0 12 0a4.454 4.454 0 0 0-3.182 1.345A4.643 4.643 0 0 0 7.5 4.594v.656H3v13.125c0 .696.27 1.364.753 1.856A2.545 2.545 0 0 0 5.571 21H18.43c.682 0 1.336-.277 1.818-.769s.753-1.16.753-1.856V5.25h-4.5ZM4.286 6.563h15.428v11.812c0 .348-.135.682-.376.928a1.273 1.273 0 0 1-.91.384H5.572c-.34 0-.668-.138-.909-.384a1.327 1.327 0 0 1-.376-.928V6.562Z" fill="#000"/></svg>